<svg width="187" height="260" viewBox="0 0 187 260" fill="none" xmlns="http://www.w3.org/2000/svg">
<g opacity="0.07" clip-path="url(#clip0_405_1017)">
<path fill-rule="evenodd" clip-rule="evenodd" d="M427.866 319.626C427.866 319.626 422 305.855 405.904 287.95C398.592 279.81 389.165 270.854 377.183 261.867C369.565 256.153 360.928 250.427 351.138 244.892C338.851 237.943 324.787 231.223 308.558 225.458C255.098 206.184 191.848 179.368 136.987 143.864C99.8334 119.819 66.5459 91.7992 42.66 59.5819C39.5453 55.378 37.2712 51.5943 35.2521 47.3649C33.4304 43.5686 31.8127 39.4158 29.9528 34.2564C29.6789 33.5366 30.0419 32.7276 30.768 32.4537C31.4878 32.1862 32.2966 32.5494 32.5641 33.2755C34.5196 38.2757 36.2011 42.3011 38.0738 45.97C40.112 49.9573 42.3736 53.518 45.4565 57.4608C69.7882 88.6462 103.343 115.392 140.522 138.265C195.625 172.157 258.741 197.457 312.061 215.413C329.042 221.222 343.871 227.885 356.655 235.159C366.929 241 375.91 247.185 383.725 253.433C396.025 263.287 405.484 273.236 412.643 282.268C428.535 302.32 433.236 317.683 433.236 317.683C433.771 319.161 433.006 320.798 431.522 321.339C430.045 321.874 428.401 321.104 427.866 319.626Z" fill="white"/>
<path fill-rule="evenodd" clip-rule="evenodd" d="M56.2844 76.2825C56.2844 76.2825 54.9915 75.6583 52.8959 74.4735C51.9341 73.9258 50.8128 73.2887 49.6026 72.5052C46.851 70.7281 43.6154 68.3714 39.8574 66.4669C36.1312 64.5815 32.0673 62.9444 27.8507 62.2756C27.3666 62.2373 27.0101 61.8107 27.0483 61.3266C27.0865 60.8425 27.5132 60.486 27.9973 60.5242C33.7235 60.5879 39.4689 62.2184 44.4818 64.2758C46.4755 65.0975 48.3415 65.9699 50.0167 66.8871C51.297 67.5878 52.4948 68.2693 53.5012 68.9954C54.5458 69.7534 55.3928 70.5179 56.0935 71.1931C57.6795 72.7091 58.4564 73.7283 58.4564 73.7283C59.1635 74.327 59.2464 75.3842 58.6477 76.0912C58.049 76.7982 56.9914 76.8812 56.2844 76.2825Z" fill="white"/>
<path fill-rule="evenodd" clip-rule="evenodd" d="M97.6872 115.04C97.6872 115.04 96.4899 115.346 94.3815 115.537C93.4452 115.62 92.3432 115.683 91.1011 115.62C89.9036 115.549 88.598 115.326 87.2158 115.059C85.4068 114.715 83.4896 114.212 81.5087 113.581C76.5531 112.008 71.3429 109.613 67.1262 105.957C66.7377 105.664 66.6548 105.116 66.9478 104.728C67.2344 104.339 67.7885 104.256 68.177 104.543C71.6612 106.747 75.6233 108.065 79.496 108.97C83.4197 109.881 87.2411 110.091 90.3558 110.435C91.7253 110.588 92.9355 110.798 93.9737 110.976C96.2477 111.365 97.5854 111.69 97.5854 111.69C98.509 111.658 99.2797 112.384 99.3115 113.308C99.3433 114.231 98.6108 115.008 97.6872 115.04Z" fill="white"/>
<path fill-rule="evenodd" clip-rule="evenodd" d="M72.8003 91.4546C72.8003 91.4546 72.348 90.4864 71.8257 88.7348C71.59 87.9514 71.3353 87.0344 71.1761 85.9707C71.0232 84.9452 70.9851 83.805 70.9533 82.5884C70.9151 80.9833 70.9722 79.2636 71.0932 77.4928C71.4117 72.6137 72.2524 67.4733 74.0996 63.5815C74.2716 63.1293 74.775 62.9 75.2336 63.0656C75.6859 63.2376 75.9151 63.747 75.7495 64.1993C75.0998 66.556 74.9214 69.2759 74.9405 72.0913C74.9596 75.2187 75.3291 78.3845 75.6858 81.2444C75.8577 82.6521 76.0869 83.9643 76.1888 85.1554C76.2525 85.9835 76.2527 86.735 76.2464 87.4165C76.2273 89.563 76.0998 90.8435 76.0998 90.8435C76.2654 91.7543 75.6667 92.6266 74.7558 92.7986C73.845 92.9642 72.9659 92.3591 72.8003 91.4546Z" fill="white"/>
<path fill-rule="evenodd" clip-rule="evenodd" d="M171.435 164.011C171.435 164.011 167.856 164.342 162.059 164.852C159.359 165.087 156.193 165.374 152.677 165.635C144.556 166.246 134.619 166.909 124.625 168.584C114.014 170.368 103.332 173.037 94.6759 177.253C94.2491 177.476 93.7202 177.311 93.4909 176.884C93.268 176.457 93.4339 175.922 93.8606 175.699C104.53 169.667 118.542 165.794 131.74 163.355C136.664 162.45 141.466 161.724 145.944 161.208C149.352 160.82 152.556 160.495 155.48 160.355C158.486 160.208 161.18 160.221 163.461 160.259C168.461 160.348 171.461 160.661 171.461 160.661C172.391 160.667 173.136 161.425 173.123 162.348C173.117 163.272 172.359 164.017 171.435 164.011Z" fill="white"/>
<path fill-rule="evenodd" clip-rule="evenodd" d="M123.16 187.922C122.211 183.833 123.249 179.017 124.873 174.654C125.561 172.813 126.351 171.087 127.173 169.546C127.568 168.807 127.943 168.1 128.376 167.488C128.828 166.858 129.3 166.323 129.752 165.864C131.179 164.399 132.185 163.699 132.185 163.699C132.765 162.985 133.81 162.877 134.523 163.456C135.236 164.036 135.345 165.081 134.765 165.794C134.765 165.794 134.434 166.705 133.708 168.196C133.377 168.864 133.013 169.654 132.504 170.489C131.752 171.711 130.733 172.998 129.803 174.457C128.561 176.418 127.306 178.521 126.395 180.737C125.434 183.075 124.765 185.425 124.848 187.699C124.905 188.164 124.58 188.591 124.115 188.654C123.65 188.718 123.223 188.387 123.16 187.922Z" fill="white"/>
<path fill-rule="evenodd" clip-rule="evenodd" d="M166.729 223.368C176.621 213.961 190.888 207.47 204.71 203.1C210.806 201.177 216.8 199.654 222.291 198.508C224.978 197.947 227.545 197.451 229.947 197.107C232.443 196.744 234.762 196.514 236.826 196.355C243.234 195.858 247.233 195.979 247.233 195.979C248.151 195.928 248.934 196.629 248.985 197.54C249.043 198.457 248.342 199.241 247.425 199.298C247.425 199.298 242.724 199.979 235.405 201.311C234.144 201.54 232.807 201.776 231.399 202.018C230.119 202.228 228.781 202.438 227.392 202.661C218.679 204.05 208.112 206.075 197.729 209.4C186.755 212.916 175.984 217.75 167.869 224.63C167.519 224.948 166.983 224.916 166.665 224.566C166.353 224.216 166.385 223.681 166.729 223.368Z" fill="white"/>
<path fill-rule="evenodd" clip-rule="evenodd" d="M126.178 71.7157C123.14 78.6777 122.751 87.8373 123.452 97.035C124.07 105.201 125.662 113.36 127.127 120.055C127.356 121.112 127.579 122.124 127.771 123.105C127.987 124.175 128.172 125.201 128.344 126.169C129.319 131.787 129.987 135.392 129.987 135.392C130.255 136.265 129.764 137.195 128.885 137.463C128.013 137.73 127.083 137.24 126.815 136.361C126.815 136.361 125.324 132.883 123.649 127.278C123.363 126.309 123.083 125.278 122.822 124.188C122.586 123.188 122.369 122.144 122.172 121.061C120.879 114.124 119.847 105.621 119.771 97.194C119.688 87.5377 120.929 78.0027 124.643 70.9771C124.847 70.5567 125.356 70.3782 125.783 70.5821C126.204 70.7859 126.382 71.2953 126.178 71.7157Z" fill="white"/>
<path fill-rule="evenodd" clip-rule="evenodd" d="M27.0439 0.0451534C32.7383 -0.34339 37.14 1.80282 40.3693 5.43348C42.4331 7.74563 43.9489 10.7267 44.9871 14.0707C45.9935 17.3192 46.5033 20.9373 46.5542 24.6635C46.6625 32.9439 44.4901 41.7593 40.8467 48.5047L40.0315 50.059L38.3244 49.6259C29.3943 47.1736 22.732 37.0775 19.7829 26.4658C17.6109 18.6376 17.4067 10.6375 19.4641 5.6438C20.9164 2.11506 23.4196 -0.0312814 27.0439 0.0451534ZM37.6938 44.7721C30.7765 42.1224 25.7319 33.8994 23.0439 25.4916C20.7891 18.4468 20.1841 11.1917 21.8593 6.57373C22.7956 4.00679 24.4451 2.2998 27.0439 2.24247C30.8784 2.51636 33.7575 4.0959 35.9677 6.42717C38.1397 8.72021 39.5285 11.8288 40.4203 15.3576C41.1528 18.2621 41.5031 21.4405 41.5477 24.7272C41.6241 31.5745 40.3245 38.8548 37.6938 44.7721Z" fill="white"/>
<path fill-rule="evenodd" clip-rule="evenodd" d="M0.990143 52.2625C2.18762 47.7083 5.67155 45.3514 10.1557 44.689C12.5698 44.3323 15.2961 44.5744 18.1115 45.2814C20.7803 45.9502 23.5318 47.0838 26.1625 48.5933C32.0097 51.9501 37.2456 57.1542 40.1247 63.0015L41.2012 65.1164L39.0291 66.0587C32.5131 68.7148 19.3407 70.1419 10.2514 67.6068C5.557 66.3011 1.93914 63.957 0.595154 60.4092C-0.245628 58.2053 -0.264664 55.511 0.990143 52.2625ZM34.8697 62.9058C28.5575 65.046 18.4172 66.2118 11.0285 64.5429C4.97742 63.1671 0.837353 59.7975 3.06033 53.0012C4.24507 50.4215 6.38517 49.2179 8.95211 48.8293C11.2961 48.4726 13.9841 48.9249 16.8122 49.8421C19.0734 50.5682 21.3919 51.6253 23.6658 52.9374C27.9907 55.4279 32.118 58.8484 34.8697 62.9058Z" fill="white"/>
<path fill-rule="evenodd" clip-rule="evenodd" d="M29.4754 91.4223L30.7428 91.1295C35.3671 89.862 40.705 88.9509 46.1446 89.0337C49.6606 89.091 53.2022 89.5814 56.5908 90.5432C64.9094 92.9191 72.2979 98.1742 76.4381 107.506L77.2791 109.34L75.4254 110.143C68.9093 112.85 58.1833 115.092 48.476 112.022C40.909 109.627 33.8958 104.072 30.0422 92.9637L29.4754 91.4223ZM32.7686 93.8108C37.6987 93.0465 43.2973 92.9513 48.8197 93.6647C52.5714 94.1488 56.3042 94.9894 59.7565 96.5244C64.5974 98.6774 68.903 102.085 71.8903 107.334C65.9794 109.614 57.3678 111.277 49.3612 109.041C42.7942 107.2 36.6732 102.709 32.7686 93.8108Z" fill="white"/>
<path fill-rule="evenodd" clip-rule="evenodd" d="M58.9701 177.419L59.8172 176.693C63.5179 173.221 67.9575 170.298 72.8557 168.253C76.0596 166.909 79.461 165.96 82.9069 165.425C91.7033 164.056 100.812 165.387 108.43 169.775L110.366 170.858L109.092 172.667C105.678 177.349 96.5188 186.177 85.6077 188.47C77.4737 190.177 68.3461 188.394 59.9638 178.546L58.9701 177.419ZM62.6964 178.24C66.1615 175.705 70.1742 173.744 74.3972 172.266C77.3781 171.221 80.4674 170.444 83.6013 169.967C90.6842 168.89 97.9899 169.387 104.41 172.247C100.722 176.776 93.4868 183.317 84.9133 185.413C77.9833 187.107 70.2062 185.827 62.6964 178.24Z" fill="white"/>
<path fill-rule="evenodd" clip-rule="evenodd" d="M104.636 211.738V210.559C104.547 208.827 104.77 202.304 106.898 195.349C107.879 192.126 109.337 188.845 111.197 185.896C114.497 180.66 119.191 176.533 125.503 175.476L126.841 175.227L127.567 176.387C131.542 183.017 131.771 192.884 127.064 200.527C123.337 206.578 116.573 211.298 106.184 211.655L104.636 211.738ZM124.892 179.762C127.758 185.202 127.809 192.801 124.35 198.928C121.439 204.107 116.044 208.221 107.764 209.291C108.146 206.814 109.248 201.947 111.133 196.769C112.172 193.922 113.401 190.954 115.038 188.285C117.407 184.412 120.535 181.087 124.892 179.762Z" fill="white"/>
<path fill-rule="evenodd" clip-rule="evenodd" d="M135.101 241.196L136.031 240.081C139.457 235.604 143.368 230.317 147.904 225.718C150.961 222.616 154.317 219.858 157.763 217.686C164.534 213.418 171.808 211.546 179.063 214.24L181.14 214.979L180.191 216.972C177.286 222.788 170.356 237.361 159.012 243.056C152.865 246.139 145.438 246.744 136.667 242.011L135.101 241.196ZM139.368 240.839C142.833 237.036 146.84 232.845 151.031 228.935C153.986 226.177 157.018 223.54 160.191 221.489C165.108 218.304 170.286 216.393 175.611 217.418C172.656 223.839 166.936 235.406 157.655 240.451C152.643 243.177 146.585 243.922 139.368 240.839Z" fill="white"/>
<path fill-rule="evenodd" clip-rule="evenodd" d="M159.288 172.035L160.523 172.22C164.746 172.685 170.727 174.411 176.995 177.233C180.345 178.743 183.766 180.577 187.046 182.647C196.174 188.424 204.136 196.03 206.894 203.527L207.786 205.87L205.295 206.214C192.142 207.871 181.766 205.329 174.224 200.635C163.638 194.036 158.587 183.201 159.205 173.64L159.288 172.035ZM161.409 175.456C165.88 176.571 171.855 179.265 178.008 182.66C181.747 184.717 185.575 187.01 189.091 189.551C194.588 193.52 199.404 197.966 202.028 202.609C191.161 203.801 182.409 201.775 175.849 197.947C166.651 192.583 161.753 183.73 161.409 175.456Z" fill="white"/>
<path fill-rule="evenodd" clip-rule="evenodd" d="M83.9214 36.8676C88.2655 37.9568 90.5653 41.3008 91.2213 45.7085C91.5653 48.0016 91.3487 50.6133 90.6926 53.3459C90.0811 55.881 89.0366 58.5242 87.6225 61.0975C84.6543 66.5117 80.0552 71.6136 74.6474 75.1488L72.8575 76.3528L71.5963 74.6076C66.8255 67.6584 66.2333 59.0975 68.0741 51.8235C69.3671 46.7469 71.8002 42.3266 74.6793 39.5749C77.5456 36.836 80.8322 35.6892 83.9214 36.8676ZM73.934 70.1169C70.6983 64.6901 70.2526 58.2184 71.3864 52.575C72.4756 47.1544 74.9722 42.4476 78.0487 40.1418C79.673 38.9252 81.4375 38.3772 83.2018 38.9378C85.6223 40.0461 86.7305 42.0843 87.0872 44.5621C87.4057 46.785 86.979 49.3392 86.1191 52.0781C85.4376 54.231 84.4567 56.4669 83.2337 58.6899C80.947 62.8492 77.794 66.964 73.934 70.1169Z" fill="white"/>
<path fill-rule="evenodd" clip-rule="evenodd" d="M129.674 30.2805L130.285 30.714C136.12 34.5103 139.559 40.1599 140.91 46.4466C141.795 50.5678 141.725 54.9693 140.948 59.2305C138.871 70.6066 131.553 81.0017 122.527 84.0463L120.769 84.6641L120.1 82.9251C116.89 74.2115 115.323 64.5425 116.298 55.5232C117.329 46.0389 121.132 37.2744 128.712 31.0895L129.674 30.2805ZM129.17 33.6375C133.489 37.23 135.706 42.09 136.572 47.2685C137.183 50.8992 137.12 54.7016 136.464 58.4215C134.859 67.5427 129.839 76.2054 122.967 79.6832C120.158 72.0461 118.712 63.6954 119.33 55.8035C119.986 47.3957 122.967 39.5166 129.17 33.6375Z" fill="white"/>
<path fill-rule="evenodd" clip-rule="evenodd" d="M145.579 79.6766L145.884 80.5494C147.853 85.2565 148.515 89.3265 148.088 92.7788C147.687 96.0082 146.33 98.7026 144.413 100.855C140.215 105.582 132.948 107.722 125.024 107.575H123.107V105.658C123.292 97.2314 125.285 91.7405 128.12 88.0716C132.578 82.2881 139.126 80.9634 144.241 79.9697L145.579 79.6766ZM143.317 82.4602C144.247 86.2246 144.26 89.3965 143.731 92.0845C143.279 94.3775 142.356 96.2824 140.993 97.8429C137.884 101.41 132.738 103.238 126.935 103.652C127.05 97.2887 128.438 92.9254 130.572 89.8743C133.935 85.0589 139.031 83.5239 143.317 82.4602Z" fill="white"/>
<path fill-rule="evenodd" clip-rule="evenodd" d="M168.529 130.716L169.376 130.525C175.141 128.926 180.453 128.761 185.262 130.009C188.784 130.927 192.026 132.621 194.95 134.965C200.855 139.697 205.454 147.233 208.734 157.067L209.747 159.972L206.683 159.659C196.969 158.513 185.052 157.271 177.204 150.799C172.414 146.85 169.045 141.003 168.618 132.048L168.529 130.716ZM170.95 133.277C175.778 132.532 180.115 132.926 184.052 134.194C186.963 135.13 189.632 136.576 192.09 138.538C196.867 142.353 200.848 148.054 203.925 155.5C195.415 154.78 185.759 153.704 179.02 148.519C174.848 145.322 171.848 140.532 170.95 133.277Z" fill="white"/>
</g>
<defs>
<clipPath id="clip0_405_1017">
<rect width="187" height="260" fill="white" transform="matrix(-1 0 0 1 187 0)"/>
</clipPath>
</defs>
</svg>
